<?xml version="1.0" standalone="no"?>
<!DOCTYPE svg PUBLIC "-//W3C//DTD SVG 20010904//EN"
 "http://www.w3.org/TR/2001/REC-SVG-20010904/DTD/svg10.dtd">
<svg version="1.0" xmlns="http://www.w3.org/2000/svg"
 width="256.000000pt" height="256.000000pt" viewBox="0 0 256.000000 256.000000"
 preserveAspectRatio="xMidYMid meet">

<g transform="translate(0.000000,256.000000) scale(0.100000,-0.100000)"
fill="#000000" stroke="none">
<path d="M1156 2478 c-7 -13 -19 -70 -25 -128 -6 -57 -15 -107 -19 -111 -4 -4
-40 -14 -80 -24 -69 -17 -210 -79 -277 -123 l-30 -20 -93 74 c-52 41 -103 74
-114 74 -32 0 -171 -140 -171 -173 0 -17 24 -56 72 -116 l72 -90 -39 -68 c-46
-79 -86 -176 -109 -266 l-17 -64 -114 -11 c-152 -15 -152 -15 -152 -149 0
-128 6 -137 106 -147 38 -3 90 -9 115 -12 l46 -6 13 -57 c18 -84 65 -198 110
-269 22 -35 37 -69 33 -75 -3 -7 -32 -43 -63 -82 -72 -89 -83 -110 -71 -132
15 -29 158 -163 172 -163 8 0 56 34 108 75 51 41 95 75 96 75 1 0 28 -16 60
-35 74 -44 182 -89 266 -110 l67 -17 6 -46 c3 -26 9 -78 12 -116 10 -100 19
-106 147 -106 134 0 134 0 149 152 l11 114 86 22 c92 24 188 65 263 113 l47
31 97 -76 c52 -42 103 -76 112 -76 24 0 172 152 172 177 0 12 -33 63 -72 113
-40 51 -72 96 -71 99 1 3 21 39 44 79 43 75 109 249 109 288 0 23 6 24 160 40
107 10 110 14 110 149 0 138 8 130 -155 148 l-109 12 -8 40 c-18 86 -61 197
-108 274 l-48 81 74 92 c41 51 74 102 74 113 0 27 -149 175 -175 175 -11 0
-62 -34 -114 -75 l-93 -75 -28 20 c-53 38 -204 104 -284 126 l-81 21 -7 64
c-4 35 -10 88 -14 117 -8 77 -17 82 -144 82 -103 0 -110 -1 -124 -22z m262
-514 c44 -9 117 -35 171 -61 78 -37 108 -59 181 -131 74 -73 94 -102 133 -182
102 -210 102 -411 0 -620 -39 -79 -61 -109 -132 -181 -72 -71 -102 -93 -181
-132 -209 -102 -410 -102 -620 0 -80 39 -109 59 -182 133 -72 73 -94 103 -131
181 -102 210 -102 410 0 619 38 79 60 109 132 181 72 72 102 94 181 132 151
74 292 93 448 61z"/>
<path d="M1066 1594 c-132 -46 -242 -87 -245 -90 -4 -3 -9 -74 -13 -157 -8
-164 -8 -170 -6 -219 1 -18 -2 -54 -6 -79 -6 -37 -4 -49 9 -62 22 -23 68 -21
90 3 16 18 16 26 6 81 -10 47 -10 68 -1 89 9 21 9 34 1 48 -14 26 -15 212 -1
212 5 0 99 -31 208 -70 109 -38 205 -70 213 -70 8 0 115 35 239 78 248 87 269
101 228 145 -16 17 -87 46 -243 101 -121 42 -224 76 -230 76 -5 -1 -118 -39
-249 -86z m312 -98 c30 -29 -24 -72 -74 -60 -69 17 -34 92 36 78 14 -3 31 -11
38 -18z"/>
<path d="M1515 1259 c-88 -32 -176 -58 -195 -58 -19 -1 -105 24 -191 53 l-157
55 3 -122 c3 -159 8 -174 54 -187 127 -36 451 -39 558 -6 94 30 94 31 91 187
l-3 135 -160 -57z"/>
</g>
</svg>
